<svg width="907" height="145" viewBox="0 0 907 145" fill="none" xmlns="http://www.w3.org/2000/svg">
<path d="M106.896 90.696C100.049 94.2147 93.3812 96.0033 86.205 95.7101C84.8295 97.704 85.8461 99.0821 86.8329 99.9032L96.73 101.985L96.6104 102.659H63.6298L63.5102 101.985L73.5569 99.8739L74.9623 94.977C66.2611 92.9245 58.756 89.5231 53.5533 82.6031C48.0515 75.2726 46.2276 66.7985 47.4535 58.0018C49.1579 45.8918 60.9986 33.9284 73.2579 32.7262L75.1118 28.8556L70.7163 26.3633L71.3742 25.6889H65.2445L63.4803 23.9589C63.4803 23.9589 63.6896 23.5483 63.8093 23.5483C74.2446 23.5483 84.68 23.5483 95.3247 23.5483L95.7134 25.425H88.9857L85.4275 29.3248C85.906 29.9406 86.0854 30.4684 86.3545 30.527C91.7964 31.7585 97.657 31.2307 102.71 34.163C103.547 34.6321 104.385 35.1013 105.042 35.4531L106.956 50.73C105.461 49.2932 104.295 48.6481 104.355 48.1203C104.714 44.4257 101.245 42.5198 100.258 39.4703C99.9294 38.444 98.7633 37.4177 97.6869 36.9486C94.0689 35.3358 90.3313 33.9284 86.5339 32.4329C85.3378 37.5643 85.0388 66.5932 85.7863 93.0418C94.039 94.5079 98.9128 89.9336 102.89 83.8933C104.116 82.046 104.833 79.8761 105.76 77.8236C105.91 77.8236 106.059 77.765 106.209 77.7356L106.866 90.6667L106.896 90.696ZM75.5603 33.8991C68.9223 36.3328 64.2578 40.2033 60.6398 45.8038C57.5002 50.6713 56.6929 56.1252 56.1845 61.4032C55.3473 70.0239 58.9354 77.765 63.9887 84.597C66.7096 88.2623 70.7462 90.696 75.5304 92.2501V33.8991H75.5603Z" fill="#E6CCA6"/>
<path d="M25.1485 101.721C24.9392 101.721 24.67 101.809 24.5504 101.721C23.8029 101.046 23.0853 100.313 22.5471 99.7854L12.9489 97.9675L7.02856 90.373C11.7529 88.7603 14.6832 90.6369 17.8527 92.8361C17.6135 92.191 17.4041 91.5459 17.1649 90.9008C16.1483 88.2912 14.5038 86.0627 13.9058 83.1598C13.0087 78.8494 8.55351 77.5006 5.32422 75.1255C2.15473 72.8091 0.450384 69.6423 0.599889 65.5665C5.62323 65.9184 7.35747 69.5543 10.3177 73.9233C9.80934 69.7302 9.15152 66.9153 9.21132 64.1004C9.27113 61.2562 9.98874 58.4119 10.4971 55.3038L7.29767 52.8114C6.55015 49.9085 5.56342 47.7386 5.56342 45.5688C5.56342 43.399 6.52025 41.1998 7.05846 39.0593H9.86914L11.9921 47.4748L17.5836 35.57C16.4772 32.4911 15.2812 29.1777 14.0852 25.8643C16.5968 22.5509 13.8759 16.7158 19.8859 14.634C20.5736 17.3902 20.1849 19.9413 20.2447 22.463C20.3045 25.0433 20.2447 27.6237 20.2447 31.3769C22.3378 28.7672 23.8029 26.9786 25.2382 25.1313C26.8827 22.9908 28.4675 20.8209 30.1419 18.7097C31.7266 16.7158 33.431 14.7513 35.1054 12.728H41.1753C39.8896 15.0152 38.9327 17.273 37.4377 19.1203C36.3912 20.4104 34.8064 21.5833 33.1918 22.0818C29.1851 23.3133 26.7631 25.8643 24.5205 29.2364C22.6069 32.0806 20.6932 34.8956 19.0487 37.9157C19.0487 37.9157 18.959 37.8278 18.8693 37.7398L17.8527 38.5901L18.2414 38.9713C18.5404 38.6488 18.8095 38.3262 19.0487 37.9451C19.5869 37.8864 20.3643 38.121 20.8128 37.8571C21.7996 37.212 22.4873 36.0098 23.5637 35.57C25.0887 34.9249 26.8229 34.7783 29.0057 34.3091C28.7665 35.2474 28.8263 36.1271 28.4076 36.5083C25.0588 39.4112 22.7265 43.5456 17.434 44.1027C15.4606 44.308 14.0254 46.7124 13.4572 48.8236C12.5602 52.2836 11.0353 55.6556 11.723 59.5261L18.8394 51.6678C19.2281 58.7051 16.4473 63.4553 11.8426 67.1499C10.4074 72.3692 13.6366 76.5037 14.5636 82.0162C15.7297 79.084 15.042 76.7969 15.341 74.7443L18.3909 70.1114C21.3511 76.445 21.0819 82.2801 17.4939 87.9393C19.3178 92.103 21.5903 95.7683 24.2813 99.2283C24.8195 99.932 24.9093 100.958 25.1784 101.867L25.1485 101.721Z" fill="#E6CCA6"/>
<path d="M141.315 37.7404C141.494 34.6029 138.983 32.5797 137.428 30.3512C135.335 27.3603 132.703 24.6627 129.145 22.874C124.092 20.323 122.148 18.0652 120.025 12.8165C121.67 12.7286 123.434 12.0835 124.57 12.6406C126.633 13.6669 129.295 15.045 129.952 16.8923C131.687 21.7012 136.262 24.2522 138.564 28.5039C139.162 29.6181 139.999 30.6444 141.524 32.8436C140.029 26.0702 139.012 20.4403 141.793 15.045C144.873 16.3645 145.591 19.5606 146.009 22.0237C146.488 24.8973 147.205 28.1813 145.112 31.2015C143.258 33.8698 143.318 36.8021 145.082 39.7636C146.727 42.5785 147.953 45.628 149.717 49.3813V39.7929L151.9 37.799L154.89 41.5229C154.89 42.0507 154.89 43.4289 154.89 44.8363C154.95 47.5633 154.89 50.1436 152.946 52.5187C151.511 54.2487 150.973 56.5358 151.092 58.9989C151.332 63.1333 151.152 67.3264 151.152 72.0473L159.016 64.746C160.003 67.2971 160.063 68.7632 158.956 70.7571C156.654 74.8915 153.395 77.6185 148.76 79.2312C148.072 83.7761 144.664 87.4707 143.797 92.1622C143.797 92.1622 143.707 92.0743 143.617 91.9863L142.601 92.8367L142.989 93.2178C143.288 92.8953 143.557 92.5728 143.797 92.1916C145.71 92.5728 146.876 90.8134 148.551 90.4322C149.657 90.1977 150.734 89.8458 151.69 89.5819C154.352 92.9539 149.717 93.9802 149.597 96.5606L143.797 99.3755H137.547C137.547 98.965 137.398 98.4958 137.547 98.1733C139.551 94.7719 141.584 91.3705 143.557 88.0865C139.61 82.5153 141.793 76.4163 141.225 70.5812L143.258 70.3759L146.846 80.0522L149.986 67.473C146.727 65.2445 143.946 62.2537 142.481 58.3538C141.793 56.5065 141.554 54.5126 140.956 51.903C146.099 53.457 146.727 57.9433 150.076 61.1394C148.79 55.363 148.282 50.1729 145.8 45.3641C139.999 43.2529 134.228 40.9365 131.388 34.5149C135.454 33.2834 137.906 36.9193 141.255 37.7697C141.255 37.7697 141.135 37.8576 141.076 37.9456L141.943 38.9426L142.331 38.5614C142.002 38.2682 141.644 38.0043 141.255 37.7697L141.315 37.7404Z" fill="#E6CCA6"/>
<path d="M110.366 121.016C112.489 119.521 113.835 117.732 114.762 115.152C115.928 111.897 117.991 108.847 120.981 106.59C122.775 109.668 120.263 112.219 120.323 115.064C120.323 115.064 120.233 114.976 120.144 114.888L119.127 115.738L119.516 116.119C119.815 115.797 120.084 115.474 120.323 115.093C123.851 113.891 126.094 111.105 128.905 108.407C128.695 104.83 128.935 101.048 131.237 97.6756C131.865 96.7373 132.313 95.6817 133.031 94.802C133.27 94.5088 134.078 94.6261 135.094 94.5088C135.094 96.62 135.094 98.5846 135.154 100.608C135.154 100.608 135.064 100.52 134.975 100.432L133.958 101.282L134.347 101.663C134.646 101.341 134.915 101.018 135.154 100.637C135.901 100.168 136.739 99.7868 137.546 99.3763C137.546 99.9627 137.815 100.784 137.516 101.136C134.765 104.449 131.895 107.674 128.636 111.428C130.609 110.959 132.134 110.431 133.689 110.255C135.274 110.079 136.888 110.225 138.533 110.225C137.516 115.328 130.639 117.556 123.612 115.327C119.396 117.585 115.689 121.104 110.396 121.075L110.366 121.016Z" fill="#E6CCA6"/>
<path d="M32.5019 110.577C36.5385 110.342 37.3458 114.711 41.1432 115.063C40.0967 112.131 37.6747 109.961 39.1997 106.354C41.203 108.407 43.4157 110.078 44.7911 112.248C46.1666 114.418 46.7048 117.057 47.6018 119.461L54.8378 121.484C47.6616 122.745 42.6383 118.259 36.9272 115.297C34.6249 116.881 31.7544 116.588 29.2427 115.825C26.3124 114.916 23.3224 113.685 20.9004 110.899C23.442 109.58 25.8041 110.782 27.7776 110.078C29.5417 109.462 31.0069 113.098 32.5318 110.606L32.5019 110.577Z" fill="#E6CCA6"/>
<path d="M32.5312 110.165C30.1989 108.084 27.8069 106.06 25.5643 103.891C25.1158 103.451 25.2653 102.483 25.1158 101.75C27.0593 100.343 26.6108 98.6712 25.7138 96.9119C25.4148 96.2961 25.2354 95.651 24.8467 94.6541C29.2122 94.4781 29.3916 98.1434 31.2754 99.9907C30.4381 103.539 32.6508 106.735 32.5013 110.195L32.5312 110.165Z" fill="#E6CCA6"/>
<path d="M110.395 121.983L106.777 122.159L106.688 121.367L110.335 120.898V122.012L110.395 121.983Z" fill="#E6CCA6"/>
<path d="M211.865 8.42261L211.865 124.562" stroke="var(--tan)" stroke-width="4.9804"/>
<path d="M301.853 10.6191H273.176C272.879 10.6191 272.879 11.5106 273.176 11.5106C277.485 11.5106 278.154 12.4021 277.336 16.6367L271.319 51.0339C270.502 55.3428 269.684 56.16 265.227 56.16C265.004 56.16 265.004 57.0515 265.227 57.0515H295.612C296.429 57.0515 296.652 56.7543 296.801 55.9371C297.395 52.7426 298.361 48.5822 299.178 45.9077C299.327 45.6106 298.51 45.462 298.361 45.7591C295.835 51.6282 291.303 55.64 286.92 55.64H280.754C276.519 55.64 275.925 54.8228 276.593 50.7367L279.639 33.7239H289.223C293.383 33.7239 294.944 35.5812 294.126 39.9644C294.052 40.4101 294.944 40.4844 295.018 40.0387C295.538 37.3642 295.761 35.284 296.132 32.9066C296.429 31.0493 296.801 29.7121 297.321 26.8147C297.395 26.369 296.504 26.2947 296.429 26.6661C295.687 30.6036 293.829 32.0151 289.743 32.0151H279.937L282.611 16.711C283.354 12.6992 284.023 11.882 288.48 11.882H293.086C297.618 11.882 300.293 15.3737 299.921 20.6485C299.921 20.9456 300.738 21.0942 300.813 20.7228C301.184 18.6426 301.853 14.0365 302.298 11.2877C302.373 10.8419 302.298 10.6191 301.853 10.6191ZM333.243 51.331C331.312 53.1883 329.752 54.5256 328.637 54.5256C327.523 54.5256 326.929 53.4112 327.449 50.4395L329.9 37.2156C331.163 30.3807 329.677 27.409 325.443 27.409C320.094 27.409 315.19 33.2038 311.699 42.7875L313.185 34.6154C314.002 29.7864 313.407 27.7062 310.733 27.7062C308.058 27.7062 305.31 29.4892 301.892 33.501C301.595 33.7981 302.189 34.4668 302.487 34.0953C304.567 31.9408 306.275 30.8265 307.39 30.8265C308.578 30.8265 309.099 32.238 308.578 34.9868L305.533 51.5539C305.087 54.1541 304.418 56.8286 304.418 57.1258C304.418 57.423 304.79 57.6458 306.424 57.6458C308.207 57.6458 309.173 57.1258 309.321 56.3829C312.293 39.9644 318.014 30.7522 322.62 30.7522C325.294 30.7522 326.111 33.2781 325.071 38.6271L322.917 50.4395C322.025 55.5657 322.62 57.7201 325.368 57.7201C328.117 57.7201 330.643 55.64 333.838 51.9254C334.135 51.5539 333.541 50.9596 333.243 51.331ZM354.771 28.5234C353.657 28.5234 349.274 28.9692 345.41 29.1178L346.451 23.3973C346.525 23.1001 345.262 22.9515 345.188 23.323C344.073 26.5918 341.324 29.2663 337.461 29.2663C337.164 29.2663 337.015 30.3064 337.387 30.3064C340.284 30.3064 340.581 30.8265 339.913 34.3182L336.793 51.1082C335.901 56.5315 338.873 57.943 341.993 57.943C345.113 57.943 348.308 56.3086 352.84 52.2225C353.063 51.9997 352.394 51.4796 352.245 51.6282C350.017 53.4112 347.936 54.7485 345.336 54.7485C342.216 54.7485 341.176 53.0398 341.844 49.1766L345.113 30.9751C348.605 31.1236 352.468 31.7923 352.84 31.7923C353.88 31.7923 355.068 30.0836 355.291 29.2663C355.366 28.8949 355.143 28.5234 354.771 28.5234ZM374.375 27.7062C370.289 27.7062 366.277 36.1012 363.454 45.2391L365.014 36.5469C366.129 29.8607 365.237 27.7062 362.414 27.7062C359.814 27.7062 357.214 29.4149 354.093 33.0552C353.796 33.3524 354.39 33.9467 354.688 33.6496C356.248 32.0894 357.882 30.8265 359.071 30.8265C360.334 30.8265 361.225 32.1637 360.408 36.9184L357.734 51.5539C357.362 53.9313 356.619 56.8286 356.619 57.1258C356.619 57.423 356.916 57.6458 358.551 57.6458C360.334 57.6458 361.3 57.1258 361.448 56.3829C363.083 47.9136 368.655 31.8666 371.849 31.8666C373.409 31.8666 373.781 34.2439 376.009 34.2439C377.421 34.2439 378.461 33.2038 378.684 31.9408C379.13 29.6378 376.455 27.7062 374.375 27.7062ZM394.296 27.409C385.604 27.409 378.398 35.7297 376.986 43.3075C375.575 50.8853 378.249 57.943 386.421 57.943C389.913 57.943 393.702 56.6801 397.491 53.4112C397.714 53.114 397.194 52.594 396.971 52.7426C394.593 54.5999 391.919 55.1942 389.764 55.1942C383.524 55.1942 381.072 49.1766 382.335 41.3016C391.027 39.8158 398.902 35.9526 399.645 31.4208C400.017 28.9692 398.085 27.409 394.296 27.409ZM393.851 32.9809C393.033 36.7698 388.724 39.0729 382.484 40.2615C383.673 34.2439 386.496 29.4149 390.805 29.4149C392.81 29.4149 394.445 30.5293 393.851 32.9809ZM419.457 27.8548C416.337 27.8548 413.068 28.8949 409.874 30.6036L411.211 22.9515C411.285 22.5801 410.542 22.4315 410.394 22.8029C409.799 25.8489 405.639 27.8548 405.565 28.3748L404.599 33.8724C403.113 34.9125 401.702 36.0269 400.364 37.2156C399.993 37.5127 400.513 38.1814 400.884 37.9585C402.073 37.067 403.187 36.1755 404.302 35.4326L397.987 70.7955C397.17 75.3273 396.798 75.996 393.678 76.5903C393.307 76.6646 393.455 77.5561 393.827 77.4818L407.051 75.4016C407.496 75.3273 407.199 74.5101 406.828 74.5844C402.965 75.1044 402.147 74.2872 402.816 70.2755L405.193 56.9029C406.233 57.0515 407.422 57.1258 409.057 57.1258C417.006 57.1258 425.252 48.4337 426.664 38.2557C427.63 31.4951 425.104 27.8548 419.457 27.8548ZM421.686 40.7073C420.646 48.8794 417.452 54.9713 411.36 54.9713C409.057 54.9713 407.274 54.4513 405.713 53.7827L409.577 32.3123C411.657 31.3465 413.663 30.8265 415.669 30.8265C421.538 30.8265 422.281 35.7297 421.686 40.7073ZM447.93 27.7062C443.844 27.7062 439.832 36.1012 437.009 45.2391L438.569 36.5469C439.683 29.8607 438.792 27.7062 435.969 27.7062C433.369 27.7062 430.768 29.4149 427.648 33.0552C427.351 33.3524 427.945 33.9467 428.242 33.6496C429.803 32.0894 431.437 30.8265 432.626 30.8265C433.889 30.8265 434.78 32.1637 433.963 36.9184L431.288 51.5539C430.917 53.9313 430.174 56.8286 430.174 57.1258C430.174 57.423 430.471 57.6458 432.106 57.6458C433.889 57.6458 434.854 57.1258 435.003 56.3829C436.637 47.9136 442.209 31.8666 445.404 31.8666C446.964 31.8666 447.335 34.2439 449.564 34.2439C450.976 34.2439 452.016 33.2038 452.239 31.9408C452.684 29.6378 450.01 27.7062 447.93 27.7062ZM467.851 27.409C459.159 27.409 451.953 35.7297 450.541 43.3075C449.129 50.8853 451.804 57.943 459.976 57.943C463.468 57.943 467.257 56.6801 471.046 53.4112C471.268 53.114 470.748 52.594 470.526 52.7426C468.148 54.5999 465.474 55.1942 463.319 55.1942C457.079 55.1942 454.627 49.1766 455.89 41.3016C464.582 39.8158 472.457 35.9526 473.2 31.4208C473.572 28.9692 471.64 27.409 467.851 27.409ZM467.405 32.9809C466.588 36.7698 462.279 39.0729 456.039 40.2615C457.227 34.2439 460.05 29.4149 464.359 29.4149C466.365 29.4149 468 30.5293 467.405 32.9809ZM504.75 51.331C502.819 53.1883 501.259 54.5256 500.144 54.5256C499.03 54.5256 498.436 53.4112 498.956 50.4395L501.407 37.2156C502.67 30.3807 501.184 27.409 496.95 27.409C491.601 27.409 486.697 33.2038 483.206 42.7875L484.692 34.6154C485.509 29.7864 484.914 27.7062 482.24 27.7062C479.565 27.7062 476.817 29.4892 473.399 33.501C473.102 33.7981 473.696 34.4668 473.993 34.0953C476.074 31.9408 477.782 30.8265 478.897 30.8265C480.085 30.8265 480.605 32.238 480.085 34.9868L477.039 51.5539C476.594 54.1541 475.925 56.8286 475.925 57.1258C475.925 57.423 476.297 57.6458 477.931 57.6458C479.714 57.6458 480.68 57.1258 480.828 56.3829C483.8 39.9644 489.52 30.7522 494.127 30.7522C496.801 30.7522 497.618 33.2781 496.578 38.6271L494.424 50.4395C493.532 55.5657 494.127 57.7201 496.875 57.7201C499.624 57.7201 502.15 55.64 505.345 51.9254C505.642 51.5539 505.048 50.9596 504.75 51.331ZM524.336 27.409C515.644 27.409 508.438 35.7297 507.026 43.3075C505.615 50.8853 508.289 57.943 516.461 57.943C519.953 57.943 523.742 56.6801 527.531 53.4112C527.754 53.114 527.233 52.594 527.011 52.7426C524.633 54.5999 521.959 55.1942 519.804 55.1942C513.564 55.1942 511.112 49.1766 512.375 41.3016C521.067 39.8158 528.942 35.9526 529.685 31.4208C530.057 28.9692 528.125 27.409 524.336 27.409ZM523.89 32.9809C523.073 36.7698 518.764 39.0729 512.524 40.2615C513.712 34.2439 516.535 29.4149 520.844 29.4149C522.85 29.4149 524.485 30.5293 523.89 32.9809ZM560.938 51.331C558.932 53.4855 557.149 54.5999 556.035 54.5999C554.846 54.5999 554.401 53.1883 554.846 50.4395L557.892 33.8724C558.338 31.2722 559.007 28.5977 559.007 28.3005C559.007 28.0034 558.635 27.7805 557.075 27.7805C555.292 27.7805 554.252 28.3005 554.103 29.0435C551.206 45.462 545.485 54.6742 540.879 54.6742C538.205 54.6742 537.239 52.2225 538.353 46.7992L540.731 34.9868C541.845 29.7121 540.879 27.7062 538.279 27.7062C535.53 27.7062 533.079 29.7864 529.884 33.501C529.513 33.8724 530.107 34.4668 530.479 34.0953C532.41 32.238 533.97 30.9008 535.01 30.9008C536.125 30.9008 536.719 32.0151 536.199 34.9868L533.524 48.2108C532.113 55.0456 533.822 58.0173 537.982 58.0173C543.331 58.0173 548.309 52.074 551.8 42.3417L550.314 50.811C549.423 55.64 550.017 57.7201 552.766 57.7201C555.441 57.7201 558.115 55.9371 561.533 51.9254C561.83 51.6282 561.235 50.9596 560.938 51.331ZM582.54 27.7062C578.454 27.7062 574.443 36.1012 571.619 45.2391L573.18 36.5469C574.294 29.8607 573.402 27.7062 570.579 27.7062C567.979 27.7062 565.379 29.4149 562.259 33.0552C561.961 33.3524 562.556 33.9467 562.853 33.6496C564.413 32.0894 566.048 30.8265 567.236 30.8265C568.499 30.8265 569.391 32.1637 568.573 36.9184L565.899 51.5539C565.527 53.9313 564.785 56.8286 564.785 57.1258C564.785 57.423 565.082 57.6458 566.716 57.6458C568.499 57.6458 569.465 57.1258 569.614 56.3829C571.248 47.9136 576.82 31.8666 580.014 31.8666C581.575 31.8666 581.946 34.2439 584.175 34.2439C585.586 34.2439 586.626 33.2038 586.849 31.9408C587.295 29.6378 584.621 27.7062 582.54 27.7062ZM597.007 19.2369C599.236 19.2369 600.499 17.974 600.499 15.7452C600.499 13.665 599.236 12.4021 597.007 12.4021C594.852 12.4021 593.515 13.665 593.515 15.7452C593.515 17.974 594.852 19.2369 597.007 19.2369ZM592.252 57.7201C594.927 57.7201 597.527 55.7886 600.722 51.9997C601.093 51.7025 600.499 51.0339 600.127 51.4053C598.27 53.3369 596.561 54.5256 595.447 54.5256C594.407 54.5256 593.812 53.4112 594.332 50.4395L597.378 34.6154C598.344 29.7864 597.601 27.7062 594.852 27.7062C592.327 27.7062 589.578 29.4892 586.16 33.501C585.789 33.7981 586.457 34.4668 586.755 34.0953C588.761 31.9408 590.544 30.8265 591.584 30.8265C592.772 30.8265 593.367 32.238 592.772 34.9868L589.726 50.4395C588.686 55.7143 589.578 57.7201 592.252 57.7201ZM630.889 51.331C629.032 53.2626 627.323 54.5256 626.283 54.5256C625.169 54.5256 624.723 53.1883 625.243 50.4395L629.552 26.9633C629.626 26.7404 628.809 26.5175 628.661 26.8147C628.289 27.8548 627.546 28.7463 626.729 29.4149C625.392 28.0034 623.46 27.409 621.677 27.409C613.654 27.409 603.327 39.8158 601.841 50.2909C601.098 55.7886 603.104 58.0173 606.373 58.0173C611.573 58.0173 617.591 52.3711 621.826 43.3818L620.637 50.4395C619.746 55.7143 620.488 57.7201 623.163 57.7201C625.689 57.7201 628.363 55.64 631.484 51.9254C631.781 51.6282 631.186 51.0339 630.889 51.331ZM609.716 53.7827C607.19 53.7827 606.076 51.4796 606.893 46.0563C608.305 37.1413 613.951 30.455 618.78 30.3807C622.197 30.3064 623.757 33.1295 622.94 37.067C621.454 44.3476 614.991 53.7827 609.716 53.7827ZM637.392 57.7201C640.066 57.7201 642.592 55.64 645.787 51.9254C646.158 51.5539 645.564 50.9596 645.192 51.331C643.261 53.1883 641.7 54.5256 640.586 54.5256C639.546 54.5256 638.877 53.4112 639.472 50.4395L648.015 3.78421C648.09 3.56134 647.57 3.04129 647.198 3.18988L636.946 8.16743C636.5 8.31602 636.872 9.20752 637.317 9.05894C641.626 6.97877 642.741 7.87027 641.998 11.7334L634.866 50.4395C633.9 55.5657 634.568 57.7201 637.392 57.7201ZM301.853 77.6191H273.176C272.879 77.6191 272.879 78.5106 273.176 78.5106C277.485 78.5106 278.154 79.4021 277.336 83.6367L271.319 118.034C270.502 122.343 269.684 123.16 265.227 123.16C265.004 123.16 265.004 124.052 265.227 124.052H295.612C296.429 124.052 296.652 123.754 296.801 122.937C297.395 119.743 298.361 115.582 299.178 112.908C299.327 112.611 298.51 112.462 298.361 112.759C295.835 118.628 291.303 122.64 286.92 122.64H280.754C276.519 122.64 275.925 121.823 276.593 117.737L279.639 100.724H289.223C293.383 100.724 294.944 102.581 294.126 106.964C294.052 107.41 294.944 107.484 295.018 107.039C295.538 104.364 295.761 102.284 296.132 99.9066C296.429 98.0493 296.801 96.7121 297.321 93.8147C297.395 93.369 296.504 93.2947 296.429 93.6661C295.687 97.6036 293.829 99.0151 289.743 99.0151H279.937L282.611 83.711C283.354 79.6992 284.023 78.882 288.48 78.882H293.086C297.618 78.882 300.293 82.3737 299.921 87.6485C299.921 87.9456 300.738 88.0942 300.813 87.7228C301.184 85.6426 301.853 81.0365 302.298 78.2877C302.373 77.8419 302.298 77.6191 301.853 77.6191ZM348.845 118.331C346.913 120.188 345.353 121.526 344.239 121.526C343.199 121.526 342.604 120.411 343.124 117.44L345.502 104.216C346.765 97.3807 345.279 94.409 341.416 94.409C336.438 94.409 331.609 99.9809 328.192 109.416L329.157 104.141C330.42 97.3064 328.786 94.409 324.997 94.409C319.945 94.409 315.19 100.055 311.847 109.342L313.185 101.615C314.002 96.7864 313.407 94.7062 310.733 94.7062C308.058 94.7062 305.31 96.4892 301.892 100.501C301.595 100.798 302.189 101.467 302.487 101.095C304.567 98.9408 306.275 97.8265 307.39 97.8265C308.578 97.8265 309.099 99.238 308.578 101.987L305.533 118.777C305.087 121.154 304.418 123.829 304.418 124.126C304.418 124.423 304.715 124.646 306.35 124.646C308.133 124.646 309.099 124.126 309.321 123.383L309.47 122.566C312.293 106.816 317.791 97.7522 322.1 97.7522C324.403 97.7522 325.22 100.13 324.403 105.553L321.951 118.554C321.58 120.931 320.837 123.829 320.837 124.126C320.837 124.423 321.134 124.646 322.768 124.646C324.551 124.646 325.591 124.126 325.666 123.383L325.963 121.748C328.934 106.073 334.358 97.7522 338.518 97.7522C340.97 97.7522 341.638 100.278 340.747 105.627L338.592 117.44C337.701 122.566 338.221 124.72 341.044 124.72C343.719 124.72 346.244 122.64 349.439 118.925C349.81 118.554 349.216 117.96 348.845 118.331ZM369.699 94.8548C366.579 94.8548 363.31 95.8949 360.116 97.6036L361.453 89.9515C361.527 89.5801 360.784 89.4315 360.636 89.8029C360.041 92.8489 355.881 94.8548 355.807 95.3748L354.841 100.872C353.355 101.913 351.943 103.027 350.606 104.216C350.235 104.513 350.755 105.181 351.126 104.958C352.315 104.067 353.429 103.175 354.544 102.433L348.229 137.796C347.412 142.327 347.04 142.996 343.92 143.59C343.548 143.665 343.697 144.556 344.069 144.482L357.293 142.402C357.738 142.327 357.441 141.51 357.07 141.584C353.206 142.104 352.389 141.287 353.058 137.275L355.435 123.903C356.475 124.052 357.664 124.126 359.298 124.126C367.248 124.126 375.494 115.434 376.906 105.256C377.871 98.4951 375.345 94.8548 369.699 94.8548ZM371.928 107.707C370.888 115.879 367.693 121.971 361.601 121.971C359.298 121.971 357.515 121.451 355.955 120.783L359.818 99.3123C361.899 98.3465 363.904 97.8265 365.91 97.8265C371.779 97.8265 372.522 102.73 371.928 107.707ZM387.994 125.092C394.828 125.092 402.183 119.371 404.115 109.713C405.749 101.318 402.555 94.409 394.68 94.409C387.176 94.409 380.49 100.872 378.781 109.713C377.221 118.182 380.49 125.092 387.994 125.092ZM390.594 123.234C384.873 123.234 382.422 114.616 384.056 106.519C385.319 99.9066 388.662 96.192 392.377 96.192C398.172 96.192 400.326 105.181 398.915 112.982C397.726 119.371 394.383 123.234 390.594 123.234ZM443.464 94.6319C441.829 94.6319 440.12 95.4491 440.12 97.5293C440.12 98.718 440.863 99.5352 441.681 100.427C443.166 102.21 444.652 104.141 443.835 109.49C442.721 116.399 438.337 120.857 434.697 120.857C431.948 120.857 429.868 119.223 428.457 116.771C430.834 113.056 432.766 108.302 433.657 102.73C434.4 98.1236 433.583 94.9291 431.131 94.9291C428.457 94.9291 426.228 99.238 425.113 105.999C424.296 110.456 424.445 114.616 425.262 117.96C423.553 119.743 421.547 120.857 419.69 120.857C415.976 120.857 413.97 117.291 414.713 111.645C415.307 107.336 417.461 101.17 419.616 96.192C419.987 95.4491 419.913 95.3005 419.022 95.3005H412.335C407.952 95.3005 406.986 96.7121 404.832 103.101C404.609 103.621 405.426 103.844 405.649 103.398C406.615 100.427 407.506 99.7581 411.221 99.7581H414.935C416.05 99.7581 416.198 100.278 415.53 101.69C413.524 105.553 411.147 110.233 410.478 114.394C409.586 120.188 411.89 125.017 417.016 125.017C419.913 125.017 423.182 123.234 426.005 120.04C427.268 123.086 429.348 125.017 432.097 125.017C437.817 125.017 445.321 116.845 446.658 105.256C447.401 99.1637 446.658 94.6319 443.464 94.6319ZM426.748 104.661C427.119 102.21 428.011 100.204 429.422 100.204C430.983 100.204 431.8 101.913 431.28 105.256C430.76 108.822 429.422 112.239 427.639 114.988C426.451 112.016 426.154 108.302 426.748 104.661ZM466.65 94.409C457.957 94.409 450.751 102.73 449.34 110.308C447.928 117.885 450.603 124.943 458.775 124.943C462.266 124.943 466.055 123.68 469.844 120.411C470.067 120.114 469.547 119.594 469.324 119.743C466.947 121.6 464.272 122.194 462.118 122.194C455.877 122.194 453.426 116.177 454.689 108.302C463.381 106.816 471.256 102.953 471.999 98.4208C472.37 95.9692 470.438 94.409 466.65 94.409ZM466.204 99.9809C465.387 103.77 461.078 106.073 454.837 107.262C456.026 101.244 458.849 96.4149 463.158 96.4149C465.164 96.4149 466.798 97.5293 466.204 99.9809ZM492.331 94.7062C488.245 94.7062 484.233 103.101 481.41 112.239L482.97 103.547C484.084 96.8607 483.193 94.7062 480.37 94.7062C477.77 94.7062 475.169 96.4149 472.049 100.055C471.752 100.352 472.346 100.947 472.643 100.65C474.204 99.0894 475.838 97.8265 477.027 97.8265C478.29 97.8265 479.181 99.1637 478.364 103.918L475.689 118.554C475.318 120.931 474.575 123.829 474.575 124.126C474.575 124.423 474.872 124.646 476.507 124.646C478.29 124.646 479.255 124.126 479.404 123.383C481.038 114.914 486.61 98.8666 489.805 98.8666C491.365 98.8666 491.736 101.244 493.965 101.244C495.377 101.244 496.417 100.204 496.64 98.9408C497.085 96.6378 494.411 94.7062 492.331 94.7062ZM542.532 118.331C540.6 120.188 539.04 121.526 537.926 121.526C536.886 121.526 536.291 120.411 536.811 117.44L539.189 104.216C540.452 97.3807 538.966 94.409 535.103 94.409C530.125 94.409 525.296 99.9809 521.879 109.416L522.844 104.141C524.107 97.3064 522.473 94.409 518.684 94.409C513.632 94.409 508.878 100.055 505.534 109.342L506.872 101.615C507.689 96.7864 507.095 94.7062 504.42 94.7062C501.746 94.7062 498.997 96.4892 495.579 100.501C495.282 100.798 495.877 101.467 496.174 101.095C498.254 98.9408 499.963 97.8265 501.077 97.8265C502.266 97.8265 502.786 99.238 502.266 101.987L499.22 118.777C498.774 121.154 498.105 123.829 498.105 124.126C498.105 124.423 498.402 124.646 500.037 124.646C501.82 124.646 502.786 124.126 503.009 123.383L503.157 122.566C505.98 106.816 511.478 97.7522 515.787 97.7522C518.09 97.7522 518.907 100.13 518.09 105.553L515.638 118.554C515.267 120.931 514.524 123.829 514.524 124.126C514.524 124.423 514.821 124.646 516.455 124.646C518.238 124.646 519.278 124.126 519.353 123.383L519.65 121.748C522.622 106.073 528.045 97.7522 532.205 97.7522C534.657 97.7522 535.326 100.278 534.434 105.627L532.28 117.44C531.388 122.566 531.908 124.72 534.731 124.72C537.406 124.72 539.932 122.64 543.126 118.925C543.498 118.554 542.903 117.96 542.532 118.331ZM562.187 94.409C553.495 94.409 546.289 102.73 544.877 110.308C543.466 117.885 546.14 124.943 554.312 124.943C557.804 124.943 561.593 123.68 565.382 120.411C565.605 120.114 565.085 119.594 564.862 119.743C562.484 121.6 559.81 122.194 557.655 122.194C551.415 122.194 548.963 116.177 550.226 108.302C558.918 106.816 566.793 102.953 567.536 98.4208C567.908 95.9692 565.976 94.409 562.187 94.409ZM561.742 99.9809C560.924 103.77 556.615 106.073 550.375 107.262C551.564 101.244 554.387 96.4149 558.696 96.4149C560.701 96.4149 562.336 97.5293 561.742 99.9809ZM599.087 118.331C597.155 120.188 595.595 121.526 594.48 121.526C593.366 121.526 592.772 120.411 593.292 117.44L595.743 104.216C597.006 97.3807 595.521 94.409 591.286 94.409C585.937 94.409 581.034 100.204 577.542 109.787L579.028 101.615C579.845 96.7864 579.251 94.7062 576.576 94.7062C573.902 94.7062 571.153 96.4892 567.735 100.501C567.438 100.798 568.033 101.467 568.33 101.095C570.41 98.9408 572.119 97.8265 573.233 97.8265C574.422 97.8265 574.942 99.238 574.422 101.987L571.376 118.554C570.93 121.154 570.261 123.829 570.261 124.126C570.261 124.423 570.633 124.646 572.267 124.646C574.05 124.646 575.016 124.126 575.165 123.383C578.136 106.964 583.857 97.7522 588.463 97.7522C591.137 97.7522 591.955 100.278 590.914 105.627L588.76 117.44C587.868 122.566 588.463 124.72 591.212 124.72C593.96 124.72 596.486 122.64 599.681 118.925C599.978 118.554 599.384 117.96 599.087 118.331ZM620.614 95.5234C619.5 95.5234 615.117 95.9692 611.254 96.1178L612.294 90.3973C612.368 90.1001 611.105 89.9515 611.031 90.323C609.916 93.5918 607.168 96.2663 603.304 96.2663C603.007 96.2663 602.859 97.3064 603.23 97.3064C606.127 97.3064 606.425 97.8265 605.756 101.318L602.636 118.108C601.744 123.531 604.716 124.943 607.836 124.943C610.956 124.943 614.151 123.309 618.683 119.223C618.906 119 618.237 118.48 618.088 118.628C615.86 120.411 613.78 121.748 611.179 121.748C608.059 121.748 607.019 120.04 607.688 116.177L610.956 97.9751C614.448 98.1236 618.311 98.7923 618.683 98.7923C619.723 98.7923 620.912 97.0836 621.134 96.2663C621.209 95.8949 620.986 95.5234 620.614 95.5234ZM685.713 77.6191C683.781 77.6191 680.809 77.8419 677.986 77.8419C675.089 77.8419 672.266 77.6191 670.26 77.6191C669.963 77.6191 669.963 78.5106 670.26 78.5106C674.643 78.5106 675.163 79.5507 674.42 83.7853L671.746 99.0151H649.31L651.984 83.7853C652.801 79.5507 653.619 78.5106 658.076 78.5106C658.299 78.5106 658.299 77.6191 658.076 77.6191C655.996 77.6191 653.099 77.8419 650.127 77.8419C647.229 77.8419 644.629 77.6191 642.549 77.6191C642.326 77.6191 642.326 78.5106 642.549 78.5106C646.858 78.5106 647.527 79.4021 646.784 83.6367L640.692 118.034C639.949 122.343 638.983 123.16 634.6 123.16C634.303 123.16 634.303 124.052 634.6 124.052C636.606 124.052 639.354 123.903 642.178 123.903C645.298 123.903 648.047 124.052 650.127 124.052C650.424 124.052 650.424 123.16 650.127 123.16C645.744 123.16 645.149 122.343 645.892 118.034L648.938 100.724H671.449L668.403 118.034C667.66 122.343 666.843 123.16 662.311 123.16C662.088 123.16 662.088 124.052 662.311 124.052C664.465 124.052 667.288 123.903 670.26 123.903C673.157 123.903 675.98 124.052 677.912 124.052C678.209 124.052 678.209 123.16 677.912 123.16C673.603 123.16 672.86 122.343 673.603 118.034L679.695 83.6367C680.512 79.4021 681.404 78.5106 685.713 78.5106C686.01 78.5106 686.01 77.6191 685.713 77.6191ZM714.009 118.331C712.003 120.486 710.22 121.6 709.105 121.6C707.917 121.6 707.471 120.188 707.917 117.44L710.963 100.872C711.408 98.2722 712.077 95.5977 712.077 95.3005C712.077 95.0034 711.706 94.7805 710.145 94.7805C708.362 94.7805 707.322 95.3005 707.174 96.0435C704.276 112.462 698.556 121.674 693.95 121.674C691.275 121.674 690.309 119.223 691.424 113.799L693.801 101.987C694.916 96.7121 693.95 94.7062 691.35 94.7062C688.601 94.7062 686.149 96.7864 682.955 100.501C682.583 100.872 683.177 101.467 683.549 101.095C685.48 99.238 687.041 97.9008 688.081 97.9008C689.195 97.9008 689.789 99.0151 689.269 101.987L686.595 115.211C685.183 122.046 686.892 125.017 691.052 125.017C696.401 125.017 701.379 119.074 704.871 109.342L703.385 117.811C702.493 122.64 703.088 124.72 705.836 124.72C708.511 124.72 711.185 122.937 714.603 118.925C714.9 118.628 714.306 117.96 714.009 118.331ZM739.251 94.409C733.308 94.409 727.364 99.9066 724.095 107.559L730.707 70.7842C730.782 70.5613 730.262 70.0413 729.816 70.1899L719.638 75.1674C719.192 75.316 719.564 76.2075 719.935 76.0589C724.318 73.9788 725.507 74.8703 724.838 78.7334L717.483 118.108C716.666 122.343 719.712 125.017 724.987 125.017C731.822 125.017 742.594 118.257 745.046 105.404C746.234 99.0151 743.857 94.409 739.251 94.409ZM739.4 107.707C737.765 117.44 732.639 123.086 727.959 123.086C724.17 123.086 721.792 120.486 722.387 116.919C724.393 105.85 729.816 98.2722 735.759 98.2722C739.697 98.2722 740.44 102.507 739.4 107.707Z" fill="#E6CCA6"/>
</svg>
