<?xml version="1.0" encoding="UTF-8"?><svg id="Layer_2" xmlns="http://www.w3.org/2000/svg" viewBox="0 0 224.65 134.22"><g id="Layer_1-2"><g><g><path d="M109.5,102.57c-6.24,2-12.27,3.61-17.95,4.91-18.76,4.28-35.86,5.73-48.03,6.13,.56,3,.41,6.11-.47,9.05,12.56-.37,30.37-1.84,50.24-6.35,6.91-1.57,13.6-3.42,20.07-5.52-1.98-2.45-3.27-5.28-3.86-8.22Z" fill="#7b0e26"/><path d="M190.69,37.9c-10.38,16.62-23.88,30.11-37.73,40.51,2.14,2.31,4.28,4.52,5.07,7.44,16.78-12.43,30.24-26.95,40.6-43.67-2.39-.62-4.7-1.71-6.79-3.3-.4-.31-.78-.64-1.15-.97Z" fill="#7b0e26"/><path d="M219.42,5.23c-6.97-6.97-18.27-6.97-25.25,0-6.64,6.64-6.94,17.19-.94,24.2,.3,.35,.61,.71,.94,1.04,1.73,1.73,3.72,3.03,5.85,3.9,6.46,2.64,14.15,1.35,19.39-3.9,6.97-6.97,6.97-18.27,0-25.25Z" fill="#e6cca6"/></g><circle cx="17.5" cy="116.73" r="17.5" fill="#7b0e26"/><circle cx="134.5" cy="95.12" r="17.5" fill="#7b0e26"/></g></g></svg>