<?xml version="1.0" encoding="UTF-8"?><svg id="Layer_2" xmlns="http://www.w3.org/2000/svg" viewBox="0 0 144.18 144.22"><g id="Layer_1-2"><g><path d="M72.01,144.22c-6.03,0-12.08-.77-18.05-2.32-18.52-4.82-34.12-16.66-43.92-33.34S-2.5,72.49,2.32,53.96C12.33,15.48,51.78-7.68,90.26,2.33c5.43,1.41,10.7,3.46,15.65,6.09l-4.22,7.95c-4.34-2.3-8.95-4.1-13.7-5.33-16.2-4.21-33.16-1.81-47.77,6.77-14.61,8.58-24.98,22.22-29.19,38.42s-1.81,33.16,6.77,47.77c8.58,14.61,22.22,24.98,38.42,29.19,16.2,4.21,33.16,1.81,47.77-6.77,14.61-8.58,24.98-22.22,29.19-38.42,4.18-16.08,1.76-33.51-6.65-47.84l7.76-4.56c9.61,16.37,12.38,36.29,7.6,54.66-4.82,18.52-16.66,34.12-33.34,43.92-11.31,6.64-23.86,10.04-36.54,10.04Z" fill="#f7f5f3"/><circle cx="59.59" cy="83.89" r="14.26" fill="#f7f5f3"/><path d="M96.76,47.92l-37.17,10.58s22.29,.55,26.63,26.63l10.54-37.21Z" fill="#e6cca6"/></g></g></svg>