<?xml version="1.0" encoding="UTF-8"?><svg id="Layer_2" xmlns="http://www.w3.org/2000/svg" viewBox="0 0 145.19 145.22"><g id="Layer_1-2"><g><path d="M72.52,145.22c-6.07,0-12.17-.77-18.18-2.34C15.59,132.81-7.73,93.08,2.35,54.34,12.43,15.59,52.15-7.73,90.9,2.35c5.47,1.42,10.77,3.49,15.76,6.14l-4.69,8.83c-4.3-2.28-8.88-4.06-13.59-5.29C54.97,3.33,20.72,23.44,12.02,56.85c-8.69,33.41,11.42,67.66,44.83,76.35,16.07,4.18,32.9,1.79,47.39-6.72,14.5-8.51,24.78-22.05,28.96-38.11,4.15-15.95,1.74-33.25-6.6-47.46l8.62-5.06c9.68,16.48,12.47,36.54,7.66,55.04-4.85,18.65-16.78,34.36-33.57,44.22-11.39,6.69-24.02,10.11-36.79,10.11Z" fill="#7b0e26"/><circle cx="60.11" cy="84.39" r="14.26" fill="#7b0e26"/><path d="M97.27,48.42l-37.17,10.58s22.29,.55,26.63,26.63l10.54-37.21Z" fill="#e6cca6"/></g></g></svg>