<?xml version="1.0" encoding="UTF-8"?><svg id="Layer_2" xmlns="http://www.w3.org/2000/svg" viewBox="0 0 66.53 141.79"><g id="Layer_1-2"><path d="M57.13,82.72c-1.54,6.96-4.12,13.72-7.64,20.1,1.06-.23,2.62-.92,4.79-2.7,2.55-2.09,3.08-.4,3.08-.4,0,0,1.38,6.46-5.06,10.28-4.53,2.68-7.68,2.78-9.16,2.6-2.61,3.49-5.54,6.81-8.74,9.93-2.08,1.97-4.23,3.87-6.48,5.66,1.86,.5,5.29,.86,9.6-1.21,.52-.25,.96-.41,1.34-.51,1.18-.31,2.16,.94,1.61,2.06-.97,1.97-3.49,5.52-9.33,6.46-6.59,1.06-9.11-1.09-9.83-1.96-3.59,2.36-7.36,4.42-11.32,6.09-3.17,1.31-6.49,2.38-9.94,2.67l-.05-.49c4.2-.76,8.17-2.28,11.92-4.27-.58-.6-2.52-3.16-.56-8.88,2.28-6.65,8.3-6.69,8.3-6.69,0,0,1.57,.57-.26,2.98-3.06,4.03-3.36,8.63-3.37,10.17,3.62-2.3,7.05-4.97,10.28-7.67,1.71-1.51,3.38-3.09,4.99-4.73-.98-1.08-2.15-3.28-1.93-7.5,.36-7.05,6.13-8.84,6.13-8.84,0,0,1.66,.09,.56,2.94-1.37,3.57-1.17,7-.81,9.11,4.77-5.52,8.88-11.62,12.02-18.15-1.32-.66-3.34-2.36-4.1-6.6-1.16-6.55,4.78-9.53,4.78-9.53,0,0,1.85-.31,1.28,2.56-.59,2.95-.03,5.57,.66,7.43,1.03-2.77,1.88-5.59,2.53-8.47,1.17-4.97,1.66-10.05,1.59-15.14-1.72-.44-4.3-1.84-7.25-5.91-5.31-7.33-1.82-13.61-1.82-13.61,0,0,1.49-1.2,2.83,2.5,1.44,3.98,3.78,6.95,5.67,8.87-.67-5.31-1.89-10.55-3.52-15.61-.66-2.12-1.4-4.21-2.22-6.28-1.86,.32-4.67,.11-8.53-1.99-7.86-4.26-6.79-12.26-6.79-12.26,0,0,1-1.98,3.67,.9,3.12,3.37,6.42,5.38,8.66,6.48-2.28-4.79-4.89-9.44-7.67-13.93-.35-.6-.71-1.19-1.09-1.77-3.4-.59-7.93-3.36-10.48-5.6C22.56,9.24,18.15,.8,19.68,.16c1.54-.63,8,.51,12.65,5.97,3.07,3.6,4.27,7.42,4.72,9.59,1.94,2.17,3.8,4.45,5.55,6.82,.71-2.58,1.36-6.65,.25-11.12-.91-3.69,1.11-3.54,1.11-3.54,0,0,6.72,3.12,6.15,11.89-.35,5.23-1.83,8.07-2.96,9.5,1.64,2.65,3.13,5.37,4.45,8.13,1.01,2.04,1.91,4.1,2.69,6.17,.62-2.45,1.05-5.57,.65-9.01-.46-3.93,1.4-3.57,1.4-3.57,0,0,5.89,3.92,4.43,12.96-.79,4.91-2.41,7.39-3.72,8.62,1.77,7.65,2.15,15.36,1.29,22.92,1.61-1.3,3.46-3.26,4.67-6.04,1.26-2.88,2.58-1.58,2.58-1.58,0,0,3.05,5.97-1.84,11.2-2.72,2.91-5.08,3.61-6.62,3.65Z" fill="#f7f5f3"/></g></svg>