<?xml version="1.0" encoding="UTF-8"?><svg id="uuid-7da61cd1-8b2e-4442-8d64-77a3fd422d47" xmlns="http://www.w3.org/2000/svg" viewBox="0 0 197.8 142.84"><g id="uuid-f1ae0213-7a5d-4e24-9522-af035b26f8e4"><g><path d="M132.15,86.27c-4.84,13.54-12.72,20.3-25.74,20.63-.02-.62-.03-1.28-.03-1.99V29.67c0-.43,0-.84,.01-1.24,12.81,.57,20.83,7.91,24.74,21.25,.13,.64,1.53,.38,1.53-.13l-1.66-15.55c-.13-2.04-.25-2.3-1.4-2.93-6.78-3.21-13.44-4.63-23.1-4.71,.56-6.55,3.36-8.28,13.43-8.28,.49,0,.49-1.95,0-1.95-5.23,0-11.92,.49-19.75,.49-7.35,0-14.2-.49-19.59-.49-.65,0-.65,1.95,0,1.95,10.72,0,13.34,1.68,13.67,9.3-20.88,3.95-35.29,18.99-35.29,39.89s14.15,36.82,35.22,40.81c-.56,6.72-3.44,8.09-13.6,8.09-.65,0-.65,1.96,0,1.96,5.39,0,12.24-.33,19.59-.33,7.83,0,14.36,.33,19.75,.33,.49,0,.49-1.96,0-1.96-9.76,0-12.66-1.24-13.36-7.09,8.91-.13,15.79-1.58,24.18-5.47,1.14-.64,1.27-.89,1.53-2.93l1.27-14.28c0-.39-1.27-.64-1.4-.13Zm-62.34-19.38c0-19.38,9.55-32.9,24.49-37.11V105c-14.22-5.08-24.49-19.79-24.49-38.11Z" fill="none" stroke="#7b0e26" stroke-miterlimit="10"/><path d="M67.02,141.8l-.05,.49c-7.16-.83-14.56-4.3-21.26-8.75-.73,.87-3.25,3-9.83,1.95-5.84-.94-8.36-4.49-9.32-6.45-.56-1.13,.42-2.38,1.6-2.07,.38,.1,.82,.26,1.34,.51,4.32,2.07,7.75,1.71,9.61,1.21-2.69-2.16-5.18-4.4-7.39-6.58-2.85-2.84-5.47-5.85-7.84-9-1.48,.18-4.63,.08-9.15-2.61-6.44-3.82-5.07-10.28-5.07-10.28,0,0,.53-1.69,3.08,.4,2.17,1.77,3.72,2.47,4.78,2.7-3.51-6.38-6.09-13.14-7.62-20.1-1.54-.04-3.9-.73-6.63-3.65-4.88-5.23-1.83-11.2-1.83-11.2,0,0,1.32-1.3,2.57,1.59,1.21,2.78,3.06,4.75,4.68,6.03-.86-7.56-.47-15.28,1.29-22.92-1.32-1.23-2.94-3.71-3.73-8.62-1.46-9.04,4.44-12.96,4.44-12.96,0,0,1.85-.36,1.4,3.57-.4,3.43,.02,6.55,.65,9,.78-2.07,1.68-4.12,2.69-6.16,1.32-2.76,2.81-5.48,4.45-8.12-1.14-1.44-2.62-4.28-2.96-9.51-.58-8.77,6.14-11.89,6.14-11.89,0,0,2.03-.15,1.11,3.54-1.11,4.48-.46,8.57,.25,11.14,1.75-2.37,3.61-4.65,5.55-6.82,.45-2.18,1.64-6.01,4.72-9.61C39.34,1.18,45.81,.03,47.34,.66c1.54,.64-2.88,9.08-5.79,11.65-2.53,2.25-7.06,5-10.46,5.6-2.19,3.43-4.27,6.95-6.14,10.53-.93,1.72-1.8,3.45-2.62,5.17,2.24-1.11,5.54-3.12,8.65-6.48,2.66-2.88,3.66-.9,3.66-.9,0,0,1.07,8-6.79,12.26-3.87,2.1-6.68,2.31-8.53,1.98-2.92,7.36-4.86,14.67-5.73,21.9,1.89-1.92,4.23-4.89,5.67-8.87,1.34-3.7,2.83-2.5,2.83-2.5,0,0,3.49,6.28-1.83,13.61-2.93,4.04-5.49,5.45-7.21,5.9-.07,8.03,1.25,15.93,4.08,23.63,.7-1.86,1.26-4.48,.67-7.44-.57-2.86,1.27-2.56,1.27-2.56,0,0,5.94,2.99,4.78,9.54-.76,4.27-2.79,5.95-4.12,6.61,2.96,6.19,6.95,12.24,12.04,18.11,.36-2.11,.56-5.53-.81-9.09-1.1-2.85,.57-2.94,.57-2.94,0,0,5.76,1.79,6.13,8.84,.21,4.21-.95,6.4-1.93,7.49,4.59,4.69,9.7,8.93,15.27,12.38-.01-1.56-.34-6.13-3.37-10.14-1.83-2.41-.26-2.98-.26-2.98,0,0,6.02,.04,8.29,6.69,1.9,5.56,.13,8.13-.5,8.83,.76,.41,1.53,.8,2.3,1.17,3.04,1.46,6.23,2.67,9.56,3.15Z" fill="none" stroke="#7b0e26" stroke-miterlimit="10"/><path d="M130.78,141.8l.05,.49c7.16-.83,14.56-4.3,21.26-8.75,.73,.87,3.25,3,9.83,1.95,5.84-.94,8.36-4.49,9.32-6.45,.56-1.13-.42-2.38-1.6-2.07-.38,.1-.82,.26-1.34,.51-4.32,2.07-7.75,1.71-9.61,1.21,2.69-2.16,5.18-4.4,7.39-6.58,2.85-2.84,5.47-5.85,7.84-9,1.48,.18,4.63,.08,9.15-2.61,6.44-3.82,5.07-10.28,5.07-10.28,0,0-.53-1.69-3.08,.4-2.17,1.77-3.72,2.47-4.78,2.7,3.51-6.38,6.09-13.14,7.62-20.1,1.54-.04,3.9-.73,6.63-3.65,4.88-5.23,1.83-11.2,1.83-11.2,0,0-1.32-1.3-2.57,1.59-1.21,2.78-3.06,4.75-4.68,6.03,.86-7.56,.47-15.28-1.29-22.92,1.32-1.23,2.94-3.71,3.73-8.62,1.46-9.04-4.44-12.96-4.44-12.96,0,0-1.85-.36-1.4,3.57,.4,3.43-.02,6.55-.65,9-.78-2.07-1.68-4.12-2.69-6.16-1.32-2.76-2.81-5.48-4.45-8.12,1.14-1.44,2.62-4.28,2.96-9.51,.58-8.77-6.14-11.89-6.14-11.89,0,0-2.03-.15-1.11,3.54,1.11,4.48,.46,8.57-.25,11.14-1.75-2.37-3.61-4.65-5.55-6.82-.45-2.18-1.64-6.01-4.72-9.61C158.46,1.18,151.99,.03,150.46,.66c-1.54,.64,2.88,9.08,5.79,11.65,2.53,2.25,7.06,5,10.46,5.6,2.19,3.43,4.27,6.95,6.14,10.53,.93,1.72,1.8,3.45,2.62,5.17-2.24-1.11-5.54-3.12-8.65-6.48-2.66-2.88-3.66-.9-3.66-.9,0,0-1.07,8,6.79,12.26,3.87,2.1,6.68,2.31,8.53,1.98,2.92,7.36,4.86,14.67,5.73,21.9-1.89-1.92-4.23-4.89-5.67-8.87-1.34-3.7-2.83-2.5-2.83-2.5,0,0-3.49,6.28,1.83,13.61,2.93,4.04,5.49,5.45,7.21,5.9,.07,8.03-1.25,15.93-4.08,23.63-.7-1.86-1.26-4.48-.67-7.44,.57-2.86-1.27-2.56-1.27-2.56,0,0-5.94,2.99-4.78,9.54,.76,4.27,2.79,5.95,4.12,6.61-2.96,6.19-6.95,12.24-12.04,18.11-.36-2.11-.56-5.53,.81-9.09,1.1-2.85-.57-2.94-.57-2.94,0,0-5.76,1.79-6.13,8.84-.21,4.21,.95,6.4,1.93,7.49-4.59,4.69-9.7,8.93-15.27,12.38,.01-1.56,.34-6.13,3.37-10.14,1.83-2.41,.26-2.98,.26-2.98,0,0-6.02,.04-8.29,6.69-1.9,5.56-.13,8.13,.5,8.83-.76,.41-1.53,.8-2.3,1.17-3.04,1.46-6.23,2.67-9.56,3.15Z" fill="none" stroke="#7b0e26" stroke-miterlimit="10"/></g></g></svg>